<?xml version="1.0" standalone="no"?>
<!DOCTYPE svg PUBLIC "-//W3C//DTD SVG 20010904//EN"
 "http://www.w3.org/TR/2001/REC-SVG-20010904/DTD/svg10.dtd">
<svg version="1.0" xmlns="http://www.w3.org/2000/svg"
 width="1160.000000pt" height="1160.000000pt" viewBox="0 0 1160.000000 1160.000000"
 preserveAspectRatio="xMidYMid meet">
<metadata>
Created by potrace 1.11, written by Peter Selinger 2001-2013
</metadata>
<g transform="translate(0.000000,1160.000000) scale(0.100000,-0.100000)"
fill="#000000" stroke="none">
<path d="M9040 11569 c-58 -4 -145 -10 -195 -14 -121 -8 -368 -48 -523 -85
-435 -104 -890 -288 -1342 -543 -143 -81 -447 -272 -490 -308 l-35 -29 45 -41
c268 -242 607 -495 903 -676 147 -90 439 -235 607 -301 504 -199 1001 -254
1389 -156 52 13 96 22 99 20 6 -7 -112 -65 -208 -101 -106 -41 -302 -90 -440
-109 -713 -101 -1623 120 -2550 619 -141 76 -487 279 -570 335 -30 20 -102 65
-160 100 -58 34 -162 105 -233 157 -733 542 -1562 916 -2292 1036 -185 31
-217 34 -485 49 -361 19 -549 9 -752 -42 -797 -201 -1287 -872 -1428 -1956
-42 -324 -51 -841 -20 -1219 5 -71 15 -191 20 -265 15 -186 35 -376 76 -705
272 -2188 849 -4162 1600 -5472 312 -543 612 -944 977 -1302 431 -422 637
-541 942 -544 132 -1 229 19 328 69 170 86 325 248 440 464 105 195 155 341
258 750 175 701 314 1120 485 1466 81 164 115 206 200 248 95 47 232 29 340
-45 83 -56 153 -147 215 -275 153 -316 340 -874 483 -1442 105 -415 205 -648
367 -862 126 -167 262 -266 439 -321 64 -20 95 -24 210 -23 265 1 396 61 695
317 700 599 1296 1537 1772 2787 30 80 59 156 63 170 5 14 36 104 69 200 339
968 624 2246 790 3550 52 406 103 945 116 1230 4 74 9 141 11 149 9 28 4 678
-6 810 -42 549 -144 962 -327 1326 -279 556 -733 891 -1326 979 -115 17 -366
19 -557 5z m-6237 -4330 c12 -6 43 -34 68 -62 l46 -52 109 -5 c123 -7 139 -12
158 -49 38 -73 28 -209 -40 -538 -66 -317 -76 -388 -71 -478 5 -93 20 -133 55
-142 63 -15 200 64 308 179 l50 53 13 100 c40 308 122 570 235 744 113 175
266 261 466 261 255 0 426 -123 487 -351 21 -81 24 -299 4 -379 -35 -136 -111
-259 -240 -383 -97 -94 -206 -170 -313 -220 -72 -34 -73 -34 -58 -57 7 -12 27
-13 137 -2 265 24 485 112 672 267 l61 50 0 83 c0 103 20 200 75 367 85 260
193 419 354 524 118 76 278 108 413 81 274 -53 426 -322 324 -573 -108 -264
-331 -466 -629 -567 l-77 -26 31 -48 c18 -26 50 -60 72 -74 37 -25 49 -27 136
-26 110 1 193 25 346 99 134 64 373 227 424 288 18 23 34 21 49 -4 7 -11 19
-18 27 -16 8 4 15 -3 19 -16 3 -12 39 -56 81 -97 l75 -74 -68 -69 -67 -68 24
-20 c35 -29 69 -24 106 15 51 54 199 278 198 299 -4 41 -50 161 -133 342 -123
268 -183 430 -175 471 14 79 163 179 266 179 73 0 91 -16 123 -112 14 -42 32
-80 40 -87 8 -6 54 -96 102 -201 49 -104 89 -191 90 -193 1 -2 46 40 100 93
216 214 458 402 546 426 115 30 209 -54 211 -189 0 -64 -17 -125 -44 -161 -10
-13 -51 -46 -91 -73 -40 -28 -95 -68 -123 -90 -74 -58 -317 -290 -372 -354
l-47 -56 28 -52 c88 -158 184 -271 241 -282 90 -17 371 121 546 267 l46 38 7
133 c11 223 57 379 156 530 298 454 977 465 1411 21 48 -48 130 -142 183 -208
85 -105 96 -124 92 -150 -3 -16 -11 -73 -17 -125 l-12 -94 -25 32 c-14 18
-107 111 -207 206 -176 167 -374 324 -394 311 -6 -3 -3 -23 9 -50 59 -137 85
-297 77 -469 -6 -137 -29 -239 -81 -358 -55 -128 -95 -187 -191 -284 -70 -70
-107 -99 -165 -127 -215 -105 -427 -87 -594 49 -56 45 -145 167 -167 229 -7
19 -17 35 -21 35 -5 0 -38 -25 -75 -56 -270 -229 -671 -377 -826 -304 -90 42
-193 146 -289 293 l-51 77 -138 -143 c-212 -221 -297 -270 -416 -236 -63 17
-142 95 -168 164 -10 28 -22 54 -26 59 -4 5 -36 -9 -71 -31 -454 -287 -909
-266 -1130 52 l-51 74 -74 -69 c-197 -183 -489 -292 -673 -249 -78 18 -375 67
-381 63 -3 -2 -9 -83 -12 -181 -9 -281 -58 -540 -145 -763 -111 -283 -283
-461 -459 -477 -128 -12 -226 45 -287 167 -56 112 -71 198 -71 400 l0 175 46
135 c26 74 81 209 123 299 42 91 76 165 76 165 0 1 -39 1 -88 1 -70 0 -95 5
-128 22 -53 28 -121 105 -163 182 l-33 62 -41 -38 c-111 -102 -258 -186 -382
-218 -247 -63 -485 92 -541 354 -40 190 11 440 146 716 78 159 146 260 255
373 126 133 245 212 380 255 88 28 181 35 218 16z"/>
<path d="M2718 6906 c-175 -63 -334 -269 -431 -559 -38 -111 -50 -195 -45
-300 6 -138 51 -207 135 -207 99 0 214 168 268 391 28 115 155 677 155 684 0
9 -45 4 -82 -9z"/>
<path d="M4152 6909 c-48 -14 -115 -86 -149 -160 -34 -72 -107 -331 -122 -429
-16 -111 -24 -290 -12 -290 29 0 147 84 229 164 107 104 165 190 218 326 31
78 38 111 42 186 4 78 1 96 -17 133 -37 71 -101 95 -189 70z"/>
<path d="M5650 6901 c-77 -24 -137 -76 -177 -155 -46 -90 -94 -247 -100 -325
l-6 -73 44 6 c24 4 82 26 129 48 105 51 211 153 259 249 35 70 36 77 20 151
-20 92 -78 126 -169 99z"/>
<path d="M8895 6881 c-59 -26 -139 -120 -185 -216 -110 -226 -131 -555 -45
-701 46 -79 138 -125 218 -110 144 27 278 345 280 661 1 123 -14 208 -48 275
-51 100 -129 133 -220 91z"/>
<path d="M3455 5453 c-51 -121 -117 -323 -156 -478 -53 -212 -42 -337 33 -389
89 -62 131 40 147 356 15 273 25 598 18 598 -3 0 -22 -39 -42 -87z"/>
</g>
</svg>
